<?xml version="1.0" encoding="UTF-8" standalone="no"?>
<!DOCTYPE svg PUBLIC "-//W3C//DTD SVG 1.1//EN" "http://www.w3.org/Graphics/SVG/1.1/DTD/svg11.dtd">
<svg width="100%" height="100%" viewBox="0 0 16667 16667" version="1.1" xmlns="http://www.w3.org/2000/svg" xmlns:xlink="http://www.w3.org/1999/xlink" xml:space="preserve" xmlns:serif="http://www.serif.com/" style="fill-rule:evenodd;clip-rule:evenodd;stroke-linejoin:round;stroke-miterlimit:2;">
    <g transform="matrix(1,0,0,1,-17536.7,0)">
        <g id="Logo-Sensatype-Font-Tool-Custom" serif:id="Logo Sensatype Font Tool Custom" transform="matrix(1,0,0,1,17536.7,0)">
            <rect x="0" y="0" width="16666.7" height="16666.7" style="fill:rgb(242,94,13);"/>
            <g transform="matrix(74.1577,0,0,74.1577,-207429,-202761)">
                <path d="M2970.17,2878.11C2970.17,2931.77 2876.2,2937.2 2848.84,2892.11L2870.75,2874.97C2887.22,2901.24 2937.17,2898.6 2937.17,2883.11C2937.17,2854.04 2851.84,2868.44 2851.84,2816.94C2851.84,2760.7 2944.5,2763.28 2967.17,2802.94L2945.26,2820.09C2929.35,2795.69 2884.84,2800.31 2884.84,2814.94C2884.84,2837.54 2970.17,2827.1 2970.17,2878.11Z" style="fill:white;"/>
            </g>
            <g transform="matrix(0.229748,0,0,1.274,9818,564.898)">
                <rect x="13084.5" y="4968.59" width="69.315" height="2965.38" style="fill:rgb(13,121,242);"/>
            </g>
            <g transform="matrix(0.229748,0,0,-1.274,9818,20780.7)">
                <rect x="13084.5" y="4812.87" width="69.315" height="3121.1" style="fill:rgb(13,121,242);"/>
            </g>
            <g transform="matrix(0.229748,0,0,-1.274,7363.9,20780.7)">
                <rect x="13084.5" y="6741.55" width="69.315" height="901.375" style="fill:rgb(13,121,242);"/>
            </g>
            <g transform="matrix(0.229748,0,0,1.274,7363.9,1306.48)">
                <rect x="13084.5" y="5952.21" width="69.315" height="1690.72" style="fill:rgb(13,121,242);"/>
            </g>
            <g transform="matrix(0.229748,0,0,1.274,3496.55,-3748.86)">
                <rect x="13084.5" y="6792.71" width="69.315" height="850.222" style="fill:rgb(13,121,242);"/>
            </g>
            <g transform="matrix(1.0661,-0.697506,0.697506,1.0661,-4230.04,8988.68)">
                <g transform="matrix(0.180335,0,0,1,8750.6,-3673.61)">
                    <rect x="13084.5" y="6792.71" width="69.315" height="1693.71" style="fill:rgb(13,121,242);"/>
                </g>
                <g transform="matrix(0.792466,0,0,0.792466,2066.79,-3794.62)">
                    <circle cx="11419.6" cy="8724.3" r="118.302" style="fill:white;"/>
                    <path d="M11419.6,8606C11484.9,8606 11537.9,8659.01 11537.9,8724.3C11537.9,8789.6 11484.9,8842.6 11419.6,8842.6C11354.3,8842.6 11301.3,8789.6 11301.3,8724.3C11301.3,8659.01 11354.3,8606 11419.6,8606ZM11419.6,8618.38C11361.2,8618.38 11313.7,8665.84 11313.7,8724.3C11313.7,8782.76 11361.2,8830.22 11419.6,8830.22C11478.1,8830.22 11525.5,8782.76 11525.5,8724.3C11525.5,8665.84 11478.1,8618.38 11419.6,8618.38Z" style="fill:rgb(13,121,242);"/>
                </g>
            </g>
            <g transform="matrix(-1.0661,0.697506,-0.697506,-1.0661,20674.2,7821.45)">
                <g transform="matrix(0.180335,0,0,1,8750.6,-3673.61)">
                    <rect x="13084.5" y="6792.71" width="69.315" height="1693.71" style="fill:rgb(13,121,242);"/>
                </g>
                <g transform="matrix(0.792466,0,0,0.792466,2066.79,-3794.62)">
                    <circle cx="11419.6" cy="8724.3" r="118.302" style="fill:white;"/>
                    <path d="M11419.6,8606C11484.9,8606 11537.9,8659.01 11537.9,8724.3C11537.9,8789.6 11484.9,8842.6 11419.6,8842.6C11354.3,8842.6 11301.3,8789.6 11301.3,8724.3C11301.3,8659.01 11354.3,8606 11419.6,8606ZM11419.6,8618.38C11361.2,8618.38 11313.7,8665.84 11313.7,8724.3C11313.7,8782.76 11361.2,8830.22 11419.6,8830.22C11478.1,8830.22 11525.5,8782.76 11525.5,8724.3C11525.5,8665.84 11478.1,8618.38 11419.6,8618.38Z" style="fill:rgb(13,121,242);"/>
                </g>
            </g>
            <g transform="matrix(1.13447,-0.579711,0.579711,1.13447,-3346.68,5013.92)">
                <g transform="matrix(0.180335,0,0,1,8750.6,-3673.61)">
                    <rect x="13084.5" y="6792.71" width="69.315" height="2633.59" style="fill:rgb(13,121,242);"/>
                </g>
                <g transform="matrix(0.792466,0,0,0.792466,2066.79,-3794.62)">
                    <circle cx="11419.6" cy="8724.3" r="118.302" style="fill:white;"/>
                    <path d="M11419.6,8606C11484.9,8606 11537.9,8659.01 11537.9,8724.3C11537.9,8789.6 11484.9,8842.6 11419.6,8842.6C11354.3,8842.6 11301.3,8789.6 11301.3,8724.3C11301.3,8659.01 11354.3,8606 11419.6,8606ZM11419.6,8618.38C11361.2,8618.38 11313.7,8665.84 11313.7,8724.3C11313.7,8782.76 11361.2,8830.22 11419.6,8830.22C11478.1,8830.22 11525.5,8782.76 11525.5,8724.3C11525.5,8665.84 11478.1,8618.38 11419.6,8618.38Z" style="fill:rgb(13,121,242);"/>
                </g>
            </g>
            <g transform="matrix(-1.13447,0.579711,-0.579711,-1.13447,19787.8,11796.6)">
                <g transform="matrix(0.180335,0,0,1,8750.6,-3673.61)">
                    <rect x="13084.5" y="6792.71" width="69.315" height="2633.59" style="fill:rgb(13,121,242);"/>
                </g>
                <g transform="matrix(0.792466,0,0,0.792466,2066.79,-3794.62)">
                    <circle cx="11419.6" cy="8724.3" r="118.302" style="fill:white;"/>
                    <path d="M11419.6,8606C11484.9,8606 11537.9,8659.01 11537.9,8724.3C11537.9,8789.6 11484.9,8842.6 11419.6,8842.6C11354.3,8842.6 11301.3,8789.6 11301.3,8724.3C11301.3,8659.01 11354.3,8606 11419.6,8606ZM11419.6,8618.38C11361.2,8618.38 11313.7,8665.84 11313.7,8724.3C11313.7,8782.76 11361.2,8830.22 11419.6,8830.22C11478.1,8830.22 11525.5,8782.76 11525.5,8724.3C11525.5,8665.84 11478.1,8618.38 11419.6,8618.38Z" style="fill:rgb(13,121,242);"/>
                </g>
            </g>
            <g transform="matrix(0.229748,0,0,-1.274,3496.55,15725.4)">
                <rect x="13084.5" y="6327.47" width="69.315" height="1315.45" style="fill:rgb(13,121,242);"/>
            </g>
            <g transform="matrix(0.229748,0,0,1.274,1043.33,-3971.33)">
                <rect x="13084.5" y="4659.03" width="69.315" height="3274.94" style="fill:rgb(13,121,242);"/>
            </g>
            <g transform="matrix(0.229748,0,0,-1.274,1043.33,16244.5)">
                <rect x="13084.5" y="4935.27" width="69.315" height="2998.7" style="fill:rgb(13,121,242);"/>
            </g>
            <g transform="matrix(1.0096,0,0,1.0096,-7471.86,-6843.81)">
                <circle cx="11419.6" cy="8724.3" r="118.302" style="fill:white;"/>
                <path d="M11419.6,8606C11484.9,8606 11537.9,8659.01 11537.9,8724.3C11537.9,8789.6 11484.9,8842.6 11419.6,8842.6C11354.3,8842.6 11301.3,8789.6 11301.3,8724.3C11301.3,8659.01 11354.3,8606 11419.6,8606ZM11419.6,8618.38C11361.2,8618.38 11313.7,8665.84 11313.7,8724.3C11313.7,8782.76 11361.2,8830.22 11419.6,8830.22C11478.1,8830.22 11525.5,8782.76 11525.5,8724.3C11525.5,8665.84 11478.1,8618.38 11419.6,8618.38Z" style="fill:rgb(13,121,242);"/>
            </g>
            <g transform="matrix(1.0096,0,0,-1.0096,-7471.86,18765)">
                <circle cx="11419.6" cy="8724.3" r="118.302" style="fill:white;"/>
                <path d="M11419.6,8606C11354.3,8606 11301.3,8659.01 11301.3,8724.3C11301.3,8789.6 11354.3,8842.6 11419.6,8842.6C11484.9,8842.6 11537.9,8789.6 11537.9,8724.3C11537.9,8659.01 11484.9,8606 11419.6,8606ZM11419.6,8618.38C11478.1,8618.38 11525.5,8665.84 11525.5,8724.3C11525.5,8782.76 11478.1,8830.22 11419.6,8830.22C11361.2,8830.22 11313.7,8782.76 11313.7,8724.3C11313.7,8665.84 11361.2,8618.38 11419.6,8618.38Z" style="fill:rgb(13,121,242);"/>
            </g>
            <g transform="matrix(1.0096,0,0,1.0096,1302.81,-1913.19)">
                <circle cx="11419.6" cy="8724.3" r="118.302" style="fill:white;"/>
                <path d="M11419.6,8606C11484.9,8606 11537.9,8659.01 11537.9,8724.3C11537.9,8789.6 11484.9,8842.6 11419.6,8842.6C11354.3,8842.6 11301.3,8789.6 11301.3,8724.3C11301.3,8659.01 11354.3,8606 11419.6,8606ZM11419.6,8618.38C11361.2,8618.38 11313.7,8665.84 11313.7,8724.3C11313.7,8782.76 11361.2,8830.22 11419.6,8830.22C11478.1,8830.22 11525.5,8782.76 11525.5,8724.3C11525.5,8665.84 11478.1,8618.38 11419.6,8618.38Z" style="fill:rgb(13,121,242);"/>
            </g>
            <g transform="matrix(1.0096,0,0,-1.0096,1302.81,23457.2)">
                <circle cx="11419.6" cy="8724.3" r="118.302" style="fill:white;"/>
                <path d="M11419.6,8606C11354.3,8606 11301.3,8659.01 11301.3,8724.3C11301.3,8789.6 11354.3,8842.6 11419.6,8842.6C11484.9,8842.6 11537.9,8789.6 11537.9,8724.3C11537.9,8659.01 11484.9,8606 11419.6,8606ZM11419.6,8618.38C11478.1,8618.38 11525.5,8665.84 11525.5,8724.3C11525.5,8782.76 11478.1,8830.22 11419.6,8830.22C11361.2,8830.22 11313.7,8782.76 11313.7,8724.3C11313.7,8665.84 11361.2,8618.38 11419.6,8618.38Z" style="fill:rgb(13,121,242);"/>
            </g>
            <g transform="matrix(1.0096,0,0,-1.0096,-1151.3,21000.1)">
                <circle cx="11419.6" cy="8724.3" r="118.302" style="fill:white;"/>
                <path d="M11419.6,8606C11354.3,8606 11301.3,8659.01 11301.3,8724.3C11301.3,8789.6 11354.3,8842.6 11419.6,8842.6C11484.9,8842.6 11537.9,8789.6 11537.9,8724.3C11537.9,8659.01 11484.9,8606 11419.6,8606ZM11419.6,8618.38C11478.1,8618.38 11525.5,8665.84 11525.5,8724.3C11525.5,8782.76 11478.1,8830.22 11419.6,8830.22C11361.2,8830.22 11313.7,8782.76 11313.7,8724.3C11313.7,8665.84 11361.2,8618.38 11419.6,8618.38Z" style="fill:rgb(13,121,242);"/>
            </g>
            <g transform="matrix(1.0096,0,0,1.0096,-1151.3,81.5175)">
                <circle cx="11419.6" cy="8724.3" r="118.302" style="fill:white;"/>
                <path d="M11419.6,8606C11484.9,8606 11537.9,8659.01 11537.9,8724.3C11537.9,8789.6 11484.9,8842.6 11419.6,8842.6C11354.3,8842.6 11301.3,8789.6 11301.3,8724.3C11301.3,8659.01 11354.3,8606 11419.6,8606ZM11419.6,8618.38C11361.2,8618.38 11313.7,8665.84 11313.7,8724.3C11313.7,8782.76 11361.2,8830.22 11419.6,8830.22C11478.1,8830.22 11525.5,8782.76 11525.5,8724.3C11525.5,8665.84 11478.1,8618.38 11419.6,8618.38Z" style="fill:rgb(13,121,242);"/>
            </g>
            <g transform="matrix(1.0096,0,0,1.0096,-5018.64,-3903.02)">
                <circle cx="11419.6" cy="8724.3" r="118.302" style="fill:white;"/>
                <path d="M11419.6,8606C11484.9,8606 11537.9,8659.01 11537.9,8724.3C11537.9,8789.6 11484.9,8842.6 11419.6,8842.6C11354.3,8842.6 11301.3,8789.6 11301.3,8724.3C11301.3,8659.01 11354.3,8606 11419.6,8606ZM11419.6,8618.38C11361.2,8618.38 11313.7,8665.84 11313.7,8724.3C11313.7,8782.76 11361.2,8830.22 11419.6,8830.22C11478.1,8830.22 11525.5,8782.76 11525.5,8724.3C11525.5,8665.84 11478.1,8618.38 11419.6,8618.38Z" style="fill:rgb(13,121,242);"/>
            </g>
            <g transform="matrix(1.0096,0,0,-1.0096,-5018.64,16472.3)">
                <circle cx="11419.6" cy="8724.3" r="118.302" style="fill:white;"/>
                <path d="M11419.6,8606C11354.3,8606 11301.3,8659.01 11301.3,8724.3C11301.3,8789.6 11354.3,8842.6 11419.6,8842.6C11484.9,8842.6 11537.9,8789.6 11537.9,8724.3C11537.9,8659.01 11484.9,8606 11419.6,8606ZM11419.6,8618.38C11478.1,8618.38 11525.5,8665.84 11525.5,8724.3C11525.5,8782.76 11478.1,8830.22 11419.6,8830.22C11361.2,8830.22 11313.7,8782.76 11313.7,8724.3C11313.7,8665.84 11361.2,8618.38 11419.6,8618.38Z" style="fill:rgb(13,121,242);"/>
            </g>
            <g transform="matrix(3.14141,0,0,3.14141,-23257.3,-8512.61)">
                <rect x="11374.2" y="4290.87" width="84.49" height="84.49" style="fill:white;"/>
                <path d="M11458.7,4290.87L11458.7,4375.36L11374.2,4375.36L11374.2,4290.87L11458.7,4290.87ZM11454.7,4294.85L11378.2,4294.85L11378.2,4371.38L11454.7,4371.38L11454.7,4294.85Z" style="fill:rgb(13,121,242);"/>
            </g>
            <g transform="matrix(3.14141,0,0,3.14141,-24879,-7241.9)">
                <rect x="11374.2" y="4290.87" width="84.49" height="84.49" style="fill:white;"/>
                <path d="M11458.7,4290.87L11458.7,4375.36L11374.2,4375.36L11374.2,4290.87L11458.7,4290.87ZM11454.7,4294.85L11378.2,4294.85L11378.2,4371.38L11454.7,4371.38L11454.7,4294.85Z" style="fill:rgb(13,121,242);"/>
            </g>
            <g transform="matrix(1.12178,0,0,1.12178,21.7744,886.036)">
                <circle cx="11419.6" cy="8724.3" r="118.302" style="fill:white;"/>
                <path d="M11419.6,8606C11484.9,8606 11537.9,8659.01 11537.9,8724.3C11537.9,8789.6 11484.9,8842.6 11419.6,8842.6C11354.3,8842.6 11301.3,8789.6 11301.3,8724.3C11301.3,8659.01 11354.3,8606 11419.6,8606ZM11419.6,8617.15C11360.5,8617.15 11312.5,8665.16 11312.5,8724.3C11312.5,8783.45 11360.5,8831.46 11419.6,8831.46C11478.8,8831.46 11526.8,8783.45 11526.8,8724.3C11526.8,8665.16 11478.8,8617.15 11419.6,8617.15Z" style="fill:rgb(13,121,242);"/>
            </g>
            <g transform="matrix(1.12178,0,0,1.12178,-2432.33,1256.82)">
                <circle cx="11419.6" cy="8724.3" r="118.302" style="fill:white;"/>
                <path d="M11419.6,8606C11484.9,8606 11537.9,8659.01 11537.9,8724.3C11537.9,8789.6 11484.9,8842.6 11419.6,8842.6C11354.3,8842.6 11301.3,8789.6 11301.3,8724.3C11301.3,8659.01 11354.3,8606 11419.6,8606ZM11419.6,8617.15C11360.5,8617.15 11312.5,8665.16 11312.5,8724.3C11312.5,8783.45 11360.5,8831.46 11419.6,8831.46C11478.8,8831.46 11526.8,8783.45 11526.8,8724.3C11526.8,8665.16 11478.8,8617.15 11419.6,8617.15Z" style="fill:rgb(13,121,242);"/>
            </g>
            <g transform="matrix(1.12178,0,0,1.12178,-6299.68,-3798.51)">
                <circle cx="11419.6" cy="8724.3" r="118.302" style="fill:white;"/>
                <path d="M11419.6,8606C11484.9,8606 11537.9,8659.01 11537.9,8724.3C11537.9,8789.6 11484.9,8842.6 11419.6,8842.6C11354.3,8842.6 11301.3,8789.6 11301.3,8724.3C11301.3,8659.01 11354.3,8606 11419.6,8606ZM11419.6,8617.15C11360.5,8617.15 11312.5,8665.16 11312.5,8724.3C11312.5,8783.45 11360.5,8831.46 11419.6,8831.46C11478.8,8831.46 11526.8,8783.45 11526.8,8724.3C11526.8,8665.16 11478.8,8617.15 11419.6,8617.15Z" style="fill:rgb(13,121,242);"/>
            </g>
            <g transform="matrix(1.12178,0,0,1.12178,-8752.9,-3650.19)">
                <circle cx="11419.6" cy="8724.3" r="118.302" style="fill:white;"/>
                <path d="M11419.6,8606C11484.9,8606 11537.9,8659.01 11537.9,8724.3C11537.9,8789.6 11484.9,8842.6 11419.6,8842.6C11354.3,8842.6 11301.3,8789.6 11301.3,8724.3C11301.3,8659.01 11354.3,8606 11419.6,8606ZM11419.6,8617.15C11360.5,8617.15 11312.5,8665.16 11312.5,8724.3C11312.5,8783.45 11360.5,8831.46 11419.6,8831.46C11478.8,8831.46 11526.8,8783.45 11526.8,8724.3C11526.8,8665.16 11478.8,8617.15 11419.6,8617.15Z" style="fill:rgb(13,121,242);"/>
            </g>
            <g transform="matrix(3.14141,0,0,3.14141,-30404.5,-3172.12)">
                <rect x="11374.2" y="4290.87" width="84.49" height="84.49" style="fill:white;"/>
                <path d="M11458.7,4290.87L11458.7,4375.36L11374.2,4375.36L11374.2,4290.87L11458.7,4290.87ZM11454.7,4294.85L11378.2,4294.85L11378.2,4371.38L11454.7,4371.38L11454.7,4294.85Z" style="fill:rgb(13,121,242);"/>
            </g>
            <g transform="matrix(3.14141,0,0,3.14141,-32029.3,-1901.06)">
                <rect x="11374.2" y="4290.87" width="84.49" height="84.49" style="fill:white;"/>
                <path d="M11458.7,4290.87L11458.7,4375.36L11374.2,4375.36L11374.2,4290.87L11458.7,4290.87ZM11454.7,4294.85L11378.2,4294.85L11378.2,4371.38L11454.7,4371.38L11454.7,4294.85Z" style="fill:rgb(13,121,242);"/>
            </g>
        </g>
    </g>
</svg>
